# xmcd
#
# Track frame offsets:
#	150
#	14960
#	28804
#	40564
#	51513
#	61133
#	69048
#	78970
#	89632
#	99554
#	112165
#	124415
#	134563
#	150134
#	162056
#	173365
#	189828
#	200078
#	220061
#	237562
#
# Disc length: 3387 seconds
#
# Revision: 0
# Processed by: cddbd v1.4PL0 Copyright (c) Steve Scherf et al.
# Submitted via: audiograbber 1.80.04
#
DISCID=120d3914
DTITLE=Various Artist - Ce Soir C'est La Fête Vol 2
DYEAR=1900
DGENRE=Pop
TTITLE0=Carl Gauthier - En Passant Par Paris
TTITLE1=S. Plourde - La Pitoune
TTITLE2=Charly Landry - Adios Polka (violon)
TTITLE3=Oscar Thiffault - Y Mouillera Pu Pantoute
TTITLE4=A. Lavoie - C'est Dans L'temps Du Jour De L'An
TTITLE5=Jacqueline Mireau - J'ai Mis D'L'accord À Mon Violon
TTITLE6=Chef Wanitou - Grand Maman En Costume De Bain
TTITLE7=Denis Coté - Reel du Laboureur (Accordéon)
TTITLE8=Camil Rioux - La Vigne Au Vin
TTITLE9=Carl Gauthier - La Destinée La Rose Aux Bois
TTITLE10=Famille Gaudet - La Jeune Mariée
TTITLE11=Jacqueline Mireau - Voila Du Vin
TTITLE12=La Parenté - Ma Mère Veut Me Marié
TTITLE13=Yvon Cuillerier - Big John McNeil
TTITLE14=A. Lavoie - Chevalier De La Table Ronde
TTITLE15=Carl Gauthier - L'arbre Est Dans Ses Feuilles
TTITLE16=Charly Landry - La Danse Du Pop Corn
TTITLE17=Claude Jacry - Le Rapide Blanc
TTITLE18=Gérard Miron - Nous Les Viderons Nos Verres
TTITLE19=Carl Gauthier - Reel Du Train
EXTD=
EXTT0=
EXTT1=
EXTT2=
EXTT3=
EXTT4=
EXTT5=
EXTT6=
EXTT7=
EXTT8=
EXTT9=
EXTT10=
EXTT11=
EXTT12=
EXTT13=
EXTT14=
EXTT15=
EXTT16=
EXTT17=
EXTT18=
EXTT19=
PLAYORDER=
